HIERARCHY
ROOT Hips
{
 OFFSET 0.000000 0.000000 0.000000
 CHANNELS 6 Xposition Yposition Zposition Yrotation Xrotation Zrotation
 JOINT Chest
 {
  OFFSET 0.000000 14.374500 -0.011500
  CHANNELS 3 Yrotation Xrotation Zrotation
  JOINT Chest2
  {
   OFFSET 0.000000 9.203400 0.023400
   CHANNELS 3 Yrotation Xrotation Zrotation
   JOINT Chest3
   {
    OFFSET 0.000000 9.162700 0.000000
    CHANNELS 3 Yrotation Xrotation Zrotation
    JOINT Chest4
    {
     OFFSET 0.000000 9.153300 0.000000
     CHANNELS 3 Yrotation Xrotation Zrotation
     JOINT Neck
     {
      OFFSET 0.000000 13.353600 0.000000
      CHANNELS 3 Yrotation Xrotation Zrotation
      JOINT Head
      {
       OFFSET 0.000000 8.573800 0.049400
       CHANNELS 3 Yrotation Xrotation Zrotation
       End Site
       {
        OFFSET 0.000000 16.219200 0.026100
       }
      }
     }
     JOINT RightCollar
     {
      OFFSET -2.497100 8.876100 0.000000
      CHANNELS 3 Yrotation Xrotation Zrotation
      JOINT RightShoulder
      {
       OFFSET -12.289200 0.000000 0.000000
       CHANNELS 3 Yrotation Xrotation Zrotation
       JOINT RightElbow
       {
        OFFSET 0.000000 -28.194900 0.000000
        CHANNELS 3 Yrotation Xrotation Zrotation
        JOINT RightWrist
        {
         OFFSET 0.000000 -23.009700 0.007900
         CHANNELS 3 Yrotation Xrotation Zrotation
         End Site
         {
          OFFSET 0.000000 -17.151500 0.000000
         }
        }
       }
      }
     }
     JOINT LeftCollar
     {
      OFFSET 2.497100 8.876100 0.000000
      CHANNELS 3 Yrotation Xrotation Zrotation
      JOINT LeftShoulder
      {
       OFFSET 12.289200 0.000000 0.000000
       CHANNELS 3 Yrotation Xrotation Zrotation
       JOINT LeftElbow
       {
        OFFSET 0.000000 -28.194900 0.000000
        CHANNELS 3 Yrotation Xrotation Zrotation
        JOINT LeftWrist
        {
         OFFSET 0.000000 -23.009700 0.007900
         CHANNELS 3 Yrotation Xrotation Zrotation
         End Site
         {
          OFFSET 0.000000 -17.151500 0.000000
         }
        }
       }
      }
     }
    }
   }
  }
 }
 JOINT RightHip
 {
  OFFSET -11.777600 0.056700 0.005700
  CHANNELS 3 Yrotation Xrotation Zrotation
  JOINT RightKnee
  {
   OFFSET 0.000000 -39.966000 -0.004200
   CHANNELS 3 Yrotation Xrotation Zrotation
   JOINT RightAnkle
   {
    OFFSET 0.000000 -41.981900 0.027400
    CHANNELS 3 Yrotation Xrotation Zrotation
    JOINT RightToe
    {
     OFFSET 0.000000 -9.910600 16.950100
     CHANNELS 3 Yrotation Xrotation Zrotation
     End Site
     {
      OFFSET 0.000000 -1.461000 6.191600
     }
    }
   }
  }
 }
 JOINT LeftHip
 {
  OFFSET 11.777600 0.056700 0.005700
  CHANNELS 3 Yrotation Xrotation Zrotation
  JOINT LeftKnee
  {
   OFFSET 0.000000 -39.966000 -0.004200
   CHANNELS 3 Yrotation Xrotation Zrotation
   JOINT LeftAnkle
   {
    OFFSET 0.000000 -41.981900 0.027400
    CHANNELS 3 Yrotation Xrotation Zrotation
    JOINT LeftToe
    {
     OFFSET 0.000000 -9.910600 16.950100
     CHANNELS 3 Yrotation Xrotation Zrotation
     End Site
     {
      OFFSET 0.000000 -1.461000 6.191600
     }
    }
   }
  }
 }
}
MOTION
Frames: 8
Frame Time: 0.008333
3.743864 130.103982 25.179543 169.528668 -35.211466 -4.516687 4.193440 32.347429 1.228827 0.803524 6.889903 0.053804 1.239048 10.605906 0.120281 3.132239 25.309454 0.716175 6.125311 13.523483 -1.156779 6.888818 -11.380699 -2.679257 9.262713 -3.678113 -4.768868 29.888727 -43.237265 -24.033791 -16.714302 -72.018453 48.398567 22.170551 16.190975 43.936684 -16.837466 -10.645431 -1.859367 -26.021531 -52.743238 20.971214 147.730845 -54.311519 -173.702957 -4.491948 -34.044354 26.947985 3.711207 -45.548489 8.256459 -160.272979 72.966620 -162.913071 2.606238 7.546661 9.743980 0.000848 -0.000530 0.000496 -0.604522 -46.429384 0.139346 151.256864 67.450018 164.603373 -1.236873 38.615005 3.409229 -0.000530 0.000976 -0.000310
3.743009 130.103524 25.179915 169.534106 -35.207181 -4.515883 4.192023 32.346422 1.229233 0.799695 6.889025 0.053190 1.238948 10.607584 0.121949 3.133284 25.310335 0.718285 6.124577 13.489674 -1.161883 6.889906 -11.416529 -2.684930 9.269327 -3.682561 -4.769983 29.908873 -43.224444 -24.066186 -16.785146 -72.013817 48.454046 22.174855 16.195802 43.935367 -16.826540 -10.647198 -1.867281 -26.029658 -52.753468 20.982770 147.656740 -54.280549 -173.635986 -4.359653 -33.966378 26.795479 3.709995 -45.550652 8.253035 -160.278604 72.965940 -162.921943 2.604856 7.543266 9.746935 -0.000983 -0.000277 -0.000575 -0.606232 -46.434749 0.139385 151.247815 67.450969 164.596020 -1.244715 38.621688 3.405000 0.000283 -0.001029 0.000166
3.742589 130.103110 25.180316 169.536351 -35.202785 -4.514880 4.190394 32.346712 1.229763 0.798498 6.887290 0.052211 1.238263 10.606626 0.121446 3.139571 25.311739 0.720523 6.121725 13.454615 -1.164394 6.887982 -11.453808 -2.687263 9.270467 -3.679108 -4.769216 29.919394 -43.222214 -24.090394 -16.828425 -72.012109 48.488180 22.177648 16.196296 43.938357 -16.822344 -10.649680 -1.866909 -26.032198 -52.756928 20.980912 147.602075 -54.251387 -173.586523 -4.276208 -33.908112 26.679441 3.709468 -45.554255 8.251554 -160.294261 72.968029 -162.938038 2.599720 7.543873 9.744392 -0.001537 -0.001151 -0.000899 -0.606957 -46.439789 0.140295 151.251145 67.449056 164.599422 -1.246122 38.622355 3.404603 -0.000920 0.000805 -0.000538
3.742445 130.102783 25.180665 169.541311 -35.198424 -4.516386 4.195681 32.348056 1.236488 0.795992 6.885108 0.051067 1.239030 10.605892 0.121424 3.138488 25.309492 0.724829 6.117722 13.419408 -1.166580 6.884726 -11.491232 -2.688961 9.266525 -3.674118 -4.768168 29.933718 -43.220013 -24.110932 -16.894922 -72.012872 48.551611 22.175894 16.209217 43.936490 -16.820763 -10.650779 -1.867305 -26.034594 -52.758255 20.977774 147.564959 -54.230013 -173.551804 -4.224812 -33.868833 26.602483 3.708224 -45.557772 8.252059 -160.299874 72.969247 -162.942327 2.594478 7.544921 9.741727 -0.000294 -0.002081 -0.000172 -0.610775 -46.445505 0.143467 151.254238 67.447977 164.601956 -1.250590 38.622871 3.410028 -0.002208 0.000682 -0.001291
3.742738 130.102800 25.180650 169.544585 -35.196301 -4.518269 4.196280 32.347898 1.239264 0.800375 6.885121 0.054162 1.236885 10.606002 0.121915 3.134683 25.305964 0.725690 6.114446 13.384557 -1.169085 6.882880 -11.509995 -2.689546 9.269904 -3.666500 -4.767848 29.936391 -43.220954 -24.122865 -16.955635 -72.013669 48.611309 22.182986 16.221406 43.937092 -16.820607 -10.649991 -1.870028 -26.038768 -52.762343 20.981570 147.547496 -54.224753 -173.532999 -4.207055 -33.854314 26.575498 3.706759 -45.560238 8.254080 -160.312693 72.969129 -162.953671 2.589326 7.544077 9.737854 0.000640 -0.003159 0.000374 -0.623857 -46.449049 0.159439 151.266129 67.449086 164.608167 -1.259370 38.626852 3.409651 -0.001135 0.000118 -0.000664
3.742513 130.102702 25.180638 169.545633 -35.193776 -4.516762 4.197947 32.343562 1.240405 0.798295 6.886094 0.053641 1.238260 10.601506 0.125750 3.131031 25.309540 0.723634 6.112541 13.347803 -1.171146 6.882684 -11.489955 -2.686064 9.278594 -3.661267 -4.770596 29.934627 -43.217003 -24.130157 -16.984475 -72.018787 48.633468 22.183647 16.221825 43.941438 -16.812012 -10.648246 -1.870368 -26.038850 -52.767657 20.976061 147.504074 -54.193636 -173.493735 -4.154412 -33.810239 26.501906 3.709152 -45.564440 8.252617 -160.328250 72.966135 -162.967244 2.584742 7.541398 9.730651 0.002448 -0.003510 0.001431 -0.632419 -46.454038 0.171640 151.271710 67.449454 164.604677 -1.262368 38.630500 3.417732 -0.001791 -0.001779 -0.001047
3.743102 130.102653 25.180807 169.547355 -35.191263 -4.518966 4.195750 32.340940 1.241522 0.800248 6.881005 0.057875 1.237846 10.600899 0.124261 3.128735 25.314829 0.721403 6.111904 13.328292 -1.172061 6.879274 -11.603541 -2.698943 9.284464 -3.658222 -4.772552 29.952731 -43.200219 -24.143414 -17.019993 -72.031958 48.646418 22.184587 16.222883 43.946711 -16.805150 -10.644056 -1.871395 -26.047127 -52.771092 20.979857 147.392569 -54.134762 -173.398681 -4.122115 -33.799412 26.437078 3.708498 -45.565190 8.255905 -160.330194 72.966731 -162.969764 2.583369 7.538540 9.729255 0.002325 -0.002567 0.001360 -0.647296 -46.459662 0.189838 151.303159 67.450807 164.628956 -1.262466 38.634425 3.414978 0.000872 -0.002153 0.000510
3.743194 130.102678 25.180672 169.547479 -35.189689 -4.518115 4.196608 32.336895 1.245848 0.801003 6.879183 0.055099 1.238222 10.597754 0.124598 3.127724 25.313034 0.726480 6.108342 13.316175 -1.176643 6.878089 -11.684650 -2.711457 9.285318 -3.644662 -4.777062 29.961382 -43.194347 -24.151794 -17.056961 -72.037875 48.664084 22.191035 16.224281 43.957735 -16.799431 -10.632950 -1.880691 -26.056259 -52.773763 20.984339 147.307246 -54.101519 -173.335653 -4.081939 -33.740600 26.363557 3.714541 -45.566189 8.250915 -160.322668 72.964831 -162.960134 2.586713 7.537287 9.726968 0.001684 -0.001463 0.000985 -0.653660 -46.461737 0.195955 151.311188 67.450011 164.632574 -1.261179 38.635921 3.415741 0.000812 -0.001170 0.000475
